<svg width="66" height="66" viewBox="0 0 66 66" fill="none" xmlns="http://www.w3.org/2000/svg">
    <g clip-path="url(#clip0_1909_10127)">
        <path d="M2.7478 66H63.25C64.768 66 66 64.7702 66 63.2501C66 46.5724 51.1962 33.0011 33 33.0011C14.8038 33.0011 0 46.5724 0 63.2501C0 64.7702 1.2298 66 2.75 66H2.7478ZM60.3284 60.5002H5.6672C7.194 48.141 18.8672 38.5009 32.9978 38.5009C47.1284 38.5009 58.806 48.1432 60.3306 60.5002H60.3284ZM32.9978 38.4987C43.6128 38.4987 52.2478 29.864 52.2478 19.2494C52.2478 8.63471 43.615 0 32.9978 0C22.3806 0 13.7478 8.63471 13.7478 19.2494C13.7478 29.864 22.385 38.4987 32.9978 38.4987ZM32.9978 5.49982C40.579 5.49982 46.7478 11.6684 46.7478 19.2494C46.7478 26.8303 40.579 32.9989 32.9978 32.9989C25.4166 32.9989 19.2478 26.8303 19.2478 19.2494C19.2478 11.6684 25.4166 5.49982 32.9978 5.49982Z" fill="#54B8BD"/>
    </g>
    <defs>
        <clipPath id="clip0_1909_10127">
            <rect width="66" height="66" fill="white" transform="matrix(-1 0 0 1 66 0)"/>
        </clipPath>
    </defs>
</svg>
