<svg width="76" height="71" viewBox="0 0 76 71" fill="none" xmlns="http://www.w3.org/2000/svg">
    <g clip-path="url(#clip0_1909_10106)">
        <path d="M31.173 35.8565C36.399 35.8565 41.2696 37.2332 45.3486 39.5995C46.0945 40.0317 46.8156 40.4968 47.5055 40.9967C48.1974 41.4925 48.8603 42.021 49.4899 42.5803C50.934 41.4658 52.6151 40.6402 54.4457 40.1874C53.7787 39.5114 53.0784 38.866 52.3449 38.2494C51.6177 37.6409 50.8592 37.0611 50.0696 36.5162C47.5927 34.8034 44.8229 33.4185 41.8431 32.4351C38.5122 31.3329 34.9174 30.7327 31.1688 30.7327C27.4203 30.7327 23.8296 31.3329 20.5008 32.4331C8.55273 36.3768 0 46.7556 0 58.9024C0 60.318 1.16364 61.4633 2.59948 61.4633H47.5449C46.2753 59.9984 45.3257 58.257 44.8062 56.3435H5.35481C6.79481 44.836 17.8265 35.8565 31.173 35.8565ZM60.9164 50.4822H60.1766V48.5933C59.4805 46.9973 58.6265 45.4731 57.6332 44.0349H55.1896V50.1298C55.2457 50.2466 55.2977 50.3634 55.3496 50.4822C56.0436 52.0454 56.5507 53.6905 56.8457 55.3991C56.8997 55.7125 56.9475 56.026 56.987 56.3435H55.1896V61.4633H59.7423C59.8899 61.4633 60.0353 61.451 60.1766 61.4284V55.3991H62.0966C61.866 53.7089 61.4649 52.0658 60.9164 50.4822ZM31.173 0C21.1449 0 12.9891 8.04322 12.9891 17.9262C12.9891 23.8838 15.9522 29.1715 20.5008 32.4331C23.5013 34.5842 27.1896 35.8544 31.173 35.8544C35.1564 35.8544 38.8447 34.5842 41.8431 32.4351C46.3917 29.1715 49.3548 23.8838 49.3548 17.9262C49.3548 8.04118 41.1948 0 31.173 0ZM31.173 30.7306C24.0125 30.7306 18.186 24.9881 18.186 17.9262C18.186 10.8643 24.0104 5.12382 31.173 5.12382C38.3356 5.12382 44.1579 10.8663 44.1579 17.9262C44.1579 24.986 38.3335 30.7306 31.173 30.7306Z" fill="#54B8BD"/>
        <path d="M60.9162 50.4823C61.4648 52.0659 61.8659 53.709 62.0965 55.3992H66.5973V50.4823H60.9162ZM57.6331 44.035C58.6264 45.4732 59.4804 46.9974 60.1765 48.5934V44.035H57.6331ZM60.1765 50.4823V44.035H55.1895V50.4823H48.7708V55.3992H55.1895V61.8444H60.1765V55.3992H66.5973V50.4823H60.1765ZM60.1765 50.4823V44.035H55.1895V50.4823H48.7708V55.3992H55.1895V61.8444H60.1765V55.3992H66.5973V50.4823H60.1765ZM57.683 37.3378C55.8108 37.3378 54.0134 37.6594 52.3448 38.2494C50.562 38.8784 48.9266 39.8167 47.5053 40.9968C44.0539 43.8568 41.8596 48.1467 41.8596 52.9407C41.8596 54.1105 41.9905 55.2476 42.2378 56.3436C42.6555 58.1957 43.4077 59.9248 44.43 61.4633C47.2539 65.7247 52.1349 68.5416 57.683 68.5416C66.4227 68.5416 73.5085 61.5555 73.5085 52.9407C73.5085 44.3259 66.4227 37.3378 57.683 37.3378ZM57.683 66.0832C53.629 66.0832 49.9905 64.2885 47.5448 61.4633C46.2752 59.9985 45.3256 58.2571 44.8061 56.3436C44.511 55.2578 44.3531 54.1167 44.3531 52.9407C44.3531 48.7368 46.3646 44.9876 49.4897 42.5804C50.9339 41.4659 52.6149 40.6403 54.4456 40.1875C55.4825 39.9314 56.5672 39.7962 57.683 39.7962C65.0347 39.7962 71.0129 45.6924 71.0129 52.9407C71.0129 60.1891 65.0347 66.0832 57.683 66.0832ZM60.1765 50.4823V44.035H55.1895V50.4823H48.7708V55.3992H55.1895V61.8444H60.1765V55.3992H66.5973V50.4823H60.1765ZM56.8456 55.3992C56.5505 53.6906 56.0435 52.0454 55.3495 50.4823C55.2975 50.3635 55.2456 50.2467 55.1895 50.1299V50.4823H48.7708V55.3992H55.1895V61.8444H60.1765V55.3992H56.8456ZM57.6331 44.035C58.6264 45.4732 59.4804 46.9974 60.1765 48.5934V44.035H57.6331ZM60.1765 50.4823V55.3992H66.5973V50.4823H60.1765Z" fill="white"/>
        <path d="M57.6831 34.8793C54.9673 34.8793 52.3886 35.4652 50.0696 36.5162C48.3324 37.3008 46.7428 38.3457 45.3486 39.5995C41.6748 42.9041 39.3662 47.6612 39.3662 52.9407C39.3662 54.1043 39.4784 55.2414 39.6945 56.3436C40.0457 58.1608 40.6753 59.8837 41.5397 61.4633C44.6317 67.1362 50.7075 71 57.6831 71C67.7839 71 76 62.8974 76 52.9407C76 42.984 67.7839 34.8793 57.6831 34.8793ZM57.6831 66.0831C53.6291 66.0831 49.9906 64.2885 47.5449 61.4633C46.2753 59.9985 45.3257 58.2571 44.8062 56.3436C44.5111 55.2578 44.3532 54.1166 44.3532 52.9407C44.3532 48.7367 46.3647 44.9876 49.4898 42.5804C50.934 41.4659 52.615 40.6402 54.4457 40.1875C55.4826 39.9314 56.5673 39.7962 57.6831 39.7962C65.0348 39.7962 71.013 45.6924 71.013 52.9407C71.013 60.189 65.0348 66.0831 57.6831 66.0831Z" fill="#54B8BD"/>
        <path d="M60.1767 44.0349H55.1897V61.8443H60.1767V44.0349Z" fill="#54B8BD"/>
        <path d="M66.5975 50.4822H48.771V55.3991H66.5975V50.4822Z" fill="#54B8BD"/>
    </g>
    <defs>
        <clipPath id="clip0_1909_10106">
            <rect width="76" height="71" fill="white"/>
        </clipPath>
    </defs>
</svg>
