<svg width="81" height="70" viewBox="0 0 81 70" fill="none" xmlns="http://www.w3.org/2000/svg">
    <g clip-path="url(#clip0_1909_10118)">
        <path d="M72.2246 70H8.77536C3.92832 70 0 66.0829 0 61.2496V60.1182C0 59.7591 0.0704679 59.4165 0.198358 59.1032C0.384369 58.6476 0.691857 58.2542 1.08071 57.9629C1.5322 57.6248 2.09337 57.4244 2.70144 57.4244C3.41568 57.4244 4.10688 57.7058 4.61088 58.2113C5.11776 58.7167 5.4 59.4031 5.4 60.1153V61.2468C5.4 62.1399 5.75424 62.9957 6.38784 63.6275C7.01856 64.2593 7.87968 64.6125 8.77536 64.6125H72.2246C73.1203 64.6125 73.9786 64.2593 74.6122 63.6275C75.2458 62.9986 75.6 62.1399 75.6 61.2468V19.5196C75.6 18.6265 75.2458 17.7707 74.6122 17.1389C73.9814 16.5071 73.1203 16.1538 72.2246 16.1538H8.77536C6.912 16.1538 5.4 17.6615 5.4 19.5196V40.5V44.1538C5.4 44.8661 5.11776 45.5553 4.61088 46.0578C4.104 46.5633 3.41568 46.8447 2.70144 46.8447C1.2096 46.8447 0 45.6386 0 44.151V40.5V19.5167C0 14.6835 3.92832 10.7664 8.77536 10.7664H72.2246C77.0717 10.7664 81 14.6835 81 19.5167V61.2468C81 66.08 77.0717 69.9971 72.2246 69.9971V70Z" fill="#54B8BD"/>
        <path d="M1.08071 57.9629C1.5322 57.6248 2.09337 57.4244 2.70144 57.4244C3.41568 57.4244 4.10688 57.7058 4.61088 58.2113C5.11776 58.7167 5.4 59.4031 5.4 60.1153V44.1538C5.4 44.8661 5.11776 45.5553 4.61088 46.0578C4.104 46.5633 3.41568 46.8447 2.70144 46.8447C1.2096 46.8447 0 45.6386 0 44.151V57.4244L1.08071 57.9629Z" fill="#54B8BD"/>
        <path d="M0 57.4244C0 58.1708 0.0799674 58.7138 0.198358 59.1032C0.384369 58.6476 0.691857 58.2542 1.08071 57.9629L0 57.4244Z" fill="#54B8BD"/>
        <path d="M2.07936 48.5707H3.32064C4.46688 48.5707 5.4 49.7137 5.4 50.6441V50.67C5.4 51.8129 4.46976 52.7434 3.32064 52.7434H2.07936C0.93312 52.7434 0 51.5975 0 50.67V50.6441C0 49.5011 0.93024 48.5707 2.07936 48.5707Z" fill="#54B8BD"/>
        <path d="M40.5014 43.0769C26.9683 43.1171 13.6138 40.0213 1.48608 34.0308L3.888 29.2119C26.9424 40.6417 54.0288 40.6417 77.0861 29.2119L79.488 34.0308C67.3718 40.0185 54.023 43.1143 40.4986 43.0769H40.5014Z" fill="#54B8BD"/>
        <path d="M56.7015 16.1538H24.3015V6.05662C24.3015 2.71097 27.0231 0 30.3754 0H50.6247C53.9799 0 56.6986 2.71385 56.6986 6.05662V16.1538H56.7015ZM29.7015 10.7692H51.3015V6.05662C51.3015 5.87856 51.2295 5.70626 51.1028 5.58277C50.979 5.45354 50.8062 5.38462 50.6276 5.38462H30.3783C30.0068 5.38462 29.7044 5.68615 29.7044 6.05662V10.7692H29.7015Z" fill="#54B8BD"/>
    </g>
    <defs>
        <clipPath id="clip0_1909_10118">
            <rect width="81" height="70" fill="white"/>
        </clipPath>
    </defs>
</svg>
